<svg xmlns="http://www.w3.org/2000/svg" version="1.1" xmlns:xlink="http://www.w3.org/1999/xlink" xmlns:svgjs="http://svgjs.dev/svgjs" width="2000" height="606" viewBox="0 0 2000 606"><g transform="matrix(1,0,0,1,-1.2121212121212466,-0.17320047798580163)"><svg viewBox="0 0 396 120" data-background-color="#192d68" preserveAspectRatio="xMidYMid meet" height="606" width="2000" xmlns="http://www.w3.org/2000/svg" xmlns:xlink="http://www.w3.org/1999/xlink"><g id="tight-bounds" transform="matrix(1,0,0,1,0.2400000000000091,0.034297124353628305)"><svg viewBox="0 0 395.52 119.93140575129277" height="119.93140575129277" width="395.52"><g><svg viewBox="0 0 636.7792493657597 193.08715243145372" height="119.93140575129277" width="395.52"><g><rect width="7.725332086022204" height="167.65888778418554" x="213.31053485559562" y="12.71413232363409" fill="#f6a431" opacity="1" stroke-width="0" stroke="transparent" fill-opacity="1" class="rect-qz-0" data-fill-palette-color="primary" rx="1%" id="qz-0" data-palette-color="#f6a431"></rect></g><g transform="matrix(1,0,0,1,241.25924936575973,26.685706305649546)"><svg viewBox="0 0 395.52 139.71573982015462" height="139.71573982015462" width="395.52"><g id="textblocktransform"><svg viewBox="0 0 395.52 139.71573982015462" height="139.71573982015462" width="395.52" id="textblock"><g><svg viewBox="0 0 395.52 85.6647114664002" height="85.6647114664002" width="395.52"><g transform="matrix(1,0,0,1,0,0)"><svg width="395.52" viewBox="1.9 -42.95 200.13 43.35" height="85.6647114664002" data-palette-color="#f6a431"><path d="M10.3 0L1.9 0 1.9-42.95 10.75-42.95 14.7-22.4 14.7-42.95 23-42.95 23 0 14.6 0 10.3-21.5 10.3 0ZM37.3 0.4Q26.35 0.4 26.35-10.95L26.35-10.95 26.35-25.65Q26.35-30.85 29.27-33.93 32.2-37 37.3-37L37.3-37Q42.4-37 45.32-33.93 48.25-30.85 48.25-25.65L48.25-25.65 48.25-10.95Q48.25 0.4 37.3 0.4L37.3 0.4ZM37.3-6.35Q38.35-6.35 38.85-7.1 39.35-7.85 39.35-9.15L39.35-9.15 39.35-27.05Q39.35-30.25 37.3-30.25L37.3-30.25Q35.25-30.25 35.25-27.05L35.25-27.05 35.25-9.15Q35.25-7.85 35.75-7.1 36.25-6.35 37.3-6.35L37.3-6.35ZM60.2 0L51.65 0 51.65-42.95 60.2-42.95 60.2-27.6 64.25-27.6 64.25-42.95 72.8-42.95 72.8 0 64.25 0 64.25-19.5 60.2-19.5 60.2 0ZM83.09 0.4Q78.84 0.4 77.27-2.43 75.69-5.25 75.69-10.5L75.69-10.5Q75.69-14.8 76.82-17.1 77.94-19.4 79.94-20.48 81.94-21.55 86.04-22.85L86.04-22.85 88.44-23.65 88.44-23.75 88.44-27.4Q88.44-28.85 87.87-29.63 87.29-30.4 86.49-30.4L86.49-30.4Q85.79-30.4 85.27-29.75 84.74-29.1 84.74-28L84.74-28 84.74-25.8 76.24-25.8 76.24-27Q76.24-32.4 78.77-34.7 81.29-37 86.99-37L86.99-37Q91.54-37 94.39-34.63 97.24-32.25 97.24-27.9L97.24-27.9 97.24 0 88.54 0 88.54-4.35Q87.89-2.1 86.47-0.85 85.04 0.4 83.09 0.4L83.09 0.4ZM86.54-6.4Q87.54-6.4 87.97-7.23 88.39-8.05 88.39-9.25L88.39-9.25 88.39-19.45Q86.44-18.7 85.52-17.55 84.59-16.4 84.59-14.35L84.59-14.35 84.59-9.65Q84.59-6.4 86.54-6.4L86.54-6.4ZM108.14 0.4Q104.69 0.4 103.39-1.05 102.09-2.5 102.09-5.7L102.09-5.7 102.09-28.55 99.64-28.55 99.64-35.2 102.09-35.2 102.09-42.95 110.59-42.95 110.59-35.2 113.09-35.2 113.09-28.55 110.59-28.55 110.59-8Q110.59-7.05 110.74-6.6 110.89-6.15 111.54-6.15L111.54-6.15Q112.04-6.15 112.49-6.2 112.94-6.25 113.09-6.25L113.09-6.25 113.09-0.25Q112.34-0.05 110.92 0.18 109.49 0.4 108.14 0.4L108.14 0.4ZM126.09 0.4Q120.44 0.4 117.99-2.7 115.54-5.8 115.54-11.95L115.54-11.95 115.54-26.65Q115.54-31.7 118.44-34.35 121.34-37 126.54-37L126.54-37Q137.09-37 137.09-26.65L137.09-26.65 137.09-24Q137.09-20 136.99-17.5L136.99-17.5 124.29-17.5 124.29-10.4Q124.29-8.5 124.69-7.43 125.09-6.35 126.39-6.35L126.39-6.35Q127.39-6.35 127.81-6.95 128.24-7.55 128.31-8.33 128.39-9.1 128.39-10.6L128.39-10.6 128.39-14.15 137.09-14.15 137.09-12.05Q137.09-5.65 134.61-2.63 132.14 0.4 126.09 0.4L126.09 0.4ZM124.24-21.85L128.39-21.85 128.39-26.55Q128.39-30.5 126.44-30.5L126.44-30.5Q124.24-30.5 124.24-26.55L124.24-26.55 124.24-21.85ZM148.79 0L140.39 0 140.39-42.95 149.24-42.95 153.19-22.4 153.19-42.95 161.49-42.95 161.49 0 153.09 0 148.79-21.5 148.79 0ZM175.38 0.4Q169.73 0.4 167.28-2.7 164.83-5.8 164.83-11.95L164.83-11.95 164.83-26.65Q164.83-31.7 167.73-34.35 170.63-37 175.83-37L175.83-37Q186.38-37 186.38-26.65L186.38-26.65 186.38-24Q186.38-20 186.28-17.5L186.28-17.5 173.58-17.5 173.58-10.4Q173.58-8.5 173.98-7.43 174.38-6.35 175.68-6.35L175.68-6.35Q176.68-6.35 177.11-6.95 177.53-7.55 177.61-8.33 177.68-9.1 177.68-10.6L177.68-10.6 177.68-14.15 186.38-14.15 186.38-12.05Q186.38-5.65 183.91-2.63 181.43 0.4 175.38 0.4L175.38 0.4ZM173.53-21.85L177.68-21.85 177.68-26.55Q177.68-30.5 175.73-30.5L175.73-30.5Q173.53-30.5 173.53-26.55L173.53-26.55 173.53-21.85ZM197.08 0.4Q193.63 0.4 192.33-1.05 191.03-2.5 191.03-5.7L191.03-5.7 191.03-28.55 188.58-28.55 188.58-35.2 191.03-35.2 191.03-42.95 199.53-42.95 199.53-35.2 202.03-35.2 202.03-28.55 199.53-28.55 199.53-8Q199.53-7.05 199.68-6.6 199.83-6.15 200.48-6.15L200.48-6.15Q200.98-6.15 201.43-6.2 201.88-6.25 202.03-6.25L202.03-6.25 202.03-0.25Q201.28-0.05 199.86 0.18 198.43 0.4 197.08 0.4L197.08 0.4Z" opacity="1" transform="matrix(1,0,0,1,0,0)" fill="#f6a431" class="wordmark-text-0" data-fill-palette-color="primary" id="text-0"></path></svg></g></svg></g><g transform="matrix(1,0,0,1,0,105.88809389054211)"><svg viewBox="0 0 375.74399999999997 33.827645929612515" height="33.827645929612515" width="375.74399999999997"><g transform="matrix(1,0,0,1,0,0)"><svg width="375.74399999999997" viewBox="1.05 -43.35 562.5300000000001 50.65" height="33.827645929612515" data-palette-color="#111111"><path d="M12.1 0.4Q6.25 0.4 3.65-2.5 1.05-5.4 1.05-11.85L1.05-11.85 1.05-16.05 9.5-16.05 9.5-10.7Q9.5-7.5 11.55-7.5L11.55-7.5Q12.7-7.5 13.15-8.18 13.6-8.85 13.6-10.45L13.6-10.45Q13.6-12.55 13.1-13.93 12.6-15.3 11.83-16.23 11.05-17.15 9.05-19.1L9.05-19.1 5.35-22.8Q1.05-27 1.05-32.1L1.05-32.1Q1.05-37.6 3.58-40.48 6.1-43.35 10.95-43.35L10.95-43.35Q16.75-43.35 19.3-40.28 21.85-37.2 21.85-30.65L21.85-30.65 13.1-30.65 13.05-33.6Q13.05-34.45 12.58-34.95 12.1-35.45 11.25-35.45L11.25-35.45Q10.25-35.45 9.75-34.9 9.25-34.35 9.25-33.4L9.25-33.4Q9.25-31.3 11.65-29.05L11.65-29.05 16.65-24.25Q18.4-22.55 19.55-21.03 20.7-19.5 21.4-17.43 22.1-15.35 22.1-12.5L22.1-12.5Q22.1-6.15 19.78-2.88 17.45 0.4 12.1 0.4L12.1 0.4ZM24.8 7.3L24.8-36.6 33.7-36.6 33.7-34.65Q35.6-37 38.95-37L38.95-37Q43.2-37 44.87-34.15 46.55-31.3 46.55-26.25L46.55-26.25 46.55-12.7Q46.55-8.4 46.05-5.68 45.55-2.95 43.85-1.28 42.15 0.4 38.7 0.4L38.7 0.4Q35.4 0.4 33.7-1.45L33.7-1.45 33.7 7.3 24.8 7.3ZM35.8-6.4Q37-6.4 37.35-7.5 37.7-8.6 37.7-10.7L37.7-10.7 37.7-26.25Q37.7-28.15 37.35-29.15 37-30.15 35.75-30.15L35.75-30.15Q33.7-30.15 33.7-26.35L33.7-26.35 33.7-10.3Q33.7-8.45 34.12-7.43 34.55-6.4 35.8-6.4L35.8-6.4ZM60.45 0.4Q49.5 0.4 49.5-10.95L49.5-10.95 49.5-25.65Q49.5-30.85 52.42-33.93 55.34-37 60.45-37L60.45-37Q65.55-37 68.47-33.93 71.4-30.85 71.4-25.65L71.4-25.65 71.4-10.95Q71.4 0.4 60.45 0.4L60.45 0.4ZM60.45-6.35Q61.5-6.35 62-7.1 62.5-7.85 62.5-9.15L62.5-9.15 62.5-27.05Q62.5-30.25 60.45-30.25L60.45-30.25Q58.4-30.25 58.4-27.05L58.4-27.05 58.4-9.15Q58.4-7.85 58.9-7.1 59.4-6.35 60.45-6.35L60.45-6.35ZM82.19 0.4Q78.74 0.4 77.44-1.05 76.14-2.5 76.14-5.7L76.14-5.7 76.14-28.55 73.69-28.55 73.69-35.2 76.14-35.2 76.14-42.95 84.64-42.95 84.64-35.2 87.14-35.2 87.14-28.55 84.64-28.55 84.64-8Q84.64-7.05 84.79-6.6 84.94-6.15 85.59-6.15L85.59-6.15Q86.09-6.15 86.54-6.2 86.99-6.25 87.14-6.25L87.14-6.25 87.14-0.25Q86.39-0.05 84.97 0.18 83.54 0.4 82.19 0.4L82.19 0.4ZM109.14 0.4Q105.69 0.4 104.39-1.05 103.09-2.5 103.09-5.7L103.09-5.7 103.09-28.55 100.64-28.55 100.64-35.2 103.09-35.2 103.09-42.95 111.59-42.95 111.59-35.2 114.09-35.2 114.09-28.55 111.59-28.55 111.59-8Q111.59-7.05 111.74-6.6 111.89-6.15 112.54-6.15L112.54-6.15Q113.04-6.15 113.49-6.2 113.94-6.25 114.09-6.25L114.09-6.25 114.09-0.25Q113.34-0.05 111.91 0.18 110.49 0.4 109.14 0.4L109.14 0.4ZM116.84 0L116.84-43.2 125.84-43.2 125.84-33Q127.24-37 131.19-37L131.19-37Q134.89-37 136.79-34.65 138.69-32.3 138.69-28.2L138.69-28.2 138.69 0 129.94 0 129.94-27.65Q129.94-28.85 129.39-29.6 128.84-30.35 127.79-30.35L127.79-30.35Q126.89-30.35 126.36-29.58 125.84-28.8 125.84-27.7L125.84-27.7 125.84 0 116.84 0ZM152.33 0.4Q146.68 0.4 144.23-2.7 141.78-5.8 141.78-11.95L141.78-11.95 141.78-26.65Q141.78-31.7 144.68-34.35 147.58-37 152.78-37L152.78-37Q163.33-37 163.33-26.65L163.33-26.65 163.33-24Q163.33-20 163.23-17.5L163.23-17.5 150.53-17.5 150.53-10.4Q150.53-8.5 150.93-7.43 151.33-6.35 152.63-6.35L152.63-6.35Q153.63-6.35 154.06-6.95 154.48-7.55 154.56-8.33 154.63-9.1 154.63-10.6L154.63-10.6 154.63-14.15 163.33-14.15 163.33-12.05Q163.33-5.65 160.86-2.63 158.38 0.4 152.33 0.4L152.33 0.4ZM150.48-21.85L154.63-21.85 154.63-26.55Q154.63-30.5 152.68-30.5L152.68-30.5Q150.48-30.5 150.48-26.55L150.48-26.55 150.48-21.85ZM186.88 0L178.33 0 178.33-42.95 186.88-42.95 186.88-27.6 190.93-27.6 190.93-42.95 199.48-42.95 199.48 0 190.93 0 190.93-19.5 186.88-19.5 186.88 0ZM209.78 0.4Q205.53 0.4 203.95-2.43 202.38-5.25 202.38-10.5L202.38-10.5Q202.38-14.8 203.5-17.1 204.63-19.4 206.63-20.48 208.63-21.55 212.73-22.85L212.73-22.85 215.13-23.65 215.13-23.75 215.13-27.4Q215.13-28.85 214.55-29.63 213.98-30.4 213.18-30.4L213.18-30.4Q212.48-30.4 211.95-29.75 211.43-29.1 211.43-28L211.43-28 211.43-25.8 202.93-25.8 202.93-27Q202.93-32.4 205.45-34.7 207.98-37 213.68-37L213.68-37Q218.23-37 221.08-34.63 223.93-32.25 223.93-27.9L223.93-27.9 223.93 0 215.23 0 215.23-4.35Q214.58-2.1 213.15-0.85 211.73 0.4 209.78 0.4L209.78 0.4ZM213.23-6.4Q214.23-6.4 214.65-7.23 215.08-8.05 215.08-9.25L215.08-9.25 215.08-19.45Q213.13-18.7 212.2-17.55 211.28-16.4 211.28-14.35L211.28-14.35 211.28-9.65Q211.28-6.4 213.23-6.4L213.23-6.4ZM234.82 0.4Q231.37 0.4 230.07-1.05 228.77-2.5 228.77-5.7L228.77-5.7 228.77-28.55 226.32-28.55 226.32-35.2 228.77-35.2 228.77-42.95 237.27-42.95 237.27-35.2 239.77-35.2 239.77-28.55 237.27-28.55 237.27-8Q237.27-7.05 237.42-6.6 237.57-6.15 238.22-6.15L238.22-6.15Q238.72-6.15 239.17-6.2 239.62-6.25 239.77-6.25L239.77-6.25 239.77-0.25Q239.02-0.05 237.6 0.18 236.17 0.4 234.82 0.4L234.82 0.4ZM252.77 0.4Q247.12 0.4 244.67-2.7 242.22-5.8 242.22-11.95L242.22-11.95 242.22-26.65Q242.22-31.7 245.12-34.35 248.02-37 253.22-37L253.22-37Q263.77-37 263.77-26.65L263.77-26.65 263.77-24Q263.77-20 263.67-17.5L263.67-17.5 250.97-17.5 250.97-10.4Q250.97-8.5 251.37-7.43 251.77-6.35 253.07-6.35L253.07-6.35Q254.07-6.35 254.5-6.95 254.92-7.55 255-8.33 255.07-9.1 255.07-10.6L255.07-10.6 255.07-14.15 263.77-14.15 263.77-12.05Q263.77-5.65 261.3-2.63 258.82 0.4 252.77 0.4L252.77 0.4ZM250.92-21.85L255.07-21.85 255.07-26.55Q255.07-30.5 253.12-30.5L253.12-30.5Q250.92-30.5 250.92-26.55L250.92-26.55 250.92-21.85ZM275.27 0L266.52 0 266.52-7.3 275.27-7.3 275.27 0ZM300.41 0.4Q294.56 0.4 291.96-2.5 289.36-5.4 289.36-11.85L289.36-11.85 289.36-16.05 297.81-16.05 297.81-10.7Q297.81-7.5 299.86-7.5L299.86-7.5Q301.01-7.5 301.46-8.18 301.91-8.85 301.91-10.45L301.91-10.45Q301.91-12.55 301.41-13.93 300.91-15.3 300.14-16.23 299.36-17.15 297.36-19.1L297.36-19.1 293.66-22.8Q289.36-27 289.36-32.1L289.36-32.1Q289.36-37.6 291.89-40.48 294.41-43.35 299.26-43.35L299.26-43.35Q305.06-43.35 307.61-40.28 310.16-37.2 310.16-30.65L310.16-30.65 301.41-30.65 301.36-33.6Q301.36-34.45 300.89-34.95 300.41-35.45 299.56-35.45L299.56-35.45Q298.56-35.45 298.06-34.9 297.56-34.35 297.56-33.4L297.56-33.4Q297.56-31.3 299.96-29.05L299.96-29.05 304.96-24.25Q306.71-22.55 307.86-21.03 309.01-19.5 309.71-17.43 310.41-15.35 310.41-12.5L310.41-12.5Q310.41-6.15 308.09-2.88 305.76 0.4 300.41 0.4L300.41 0.4ZM320.66 0.4Q317.21 0.4 315.91-1.05 314.61-2.5 314.61-5.7L314.61-5.7 314.61-28.55 312.16-28.55 312.16-35.2 314.61-35.2 314.61-42.95 323.11-42.95 323.11-35.2 325.61-35.2 325.61-28.55 323.11-28.55 323.11-8Q323.11-7.05 323.26-6.6 323.41-6.15 324.06-6.15L324.06-6.15Q324.56-6.15 325.01-6.2 325.46-6.25 325.61-6.25L325.61-6.25 325.61-0.25Q324.86-0.05 323.44 0.18 322.01 0.4 320.66 0.4L320.66 0.4ZM339.01 0.4Q328.06 0.4 328.06-10.95L328.06-10.95 328.06-25.65Q328.06-30.85 330.98-33.93 333.91-37 339.01-37L339.01-37Q344.11-37 347.03-33.93 349.96-30.85 349.96-25.65L349.96-25.65 349.96-10.95Q349.96 0.4 339.01 0.4L339.01 0.4ZM339.01-6.35Q340.06-6.35 340.56-7.1 341.06-7.85 341.06-9.15L341.06-9.15 341.06-27.05Q341.06-30.25 339.01-30.25L339.01-30.25Q336.96-30.25 336.96-27.05L336.96-27.05 336.96-9.15Q336.96-7.85 337.46-7.1 337.96-6.35 339.01-6.35L339.01-6.35ZM353.21 7.3L353.21-36.6 362.11-36.6 362.11-34.65Q364.01-37 367.36-37L367.36-37Q371.61-37 373.28-34.15 374.96-31.3 374.96-26.25L374.96-26.25 374.96-12.7Q374.96-8.4 374.46-5.68 373.96-2.95 372.26-1.28 370.56 0.4 367.11 0.4L367.11 0.4Q363.81 0.4 362.11-1.45L362.11-1.45 362.11 7.3 353.21 7.3ZM364.21-6.4Q365.41-6.4 365.76-7.5 366.11-8.6 366.11-10.7L366.11-10.7 366.11-26.25Q366.11-28.15 365.76-29.15 365.41-30.15 364.16-30.15L364.16-30.15Q362.11-30.15 362.11-26.35L362.11-26.35 362.11-10.3Q362.11-8.45 362.53-7.43 362.96-6.4 364.21-6.4L364.21-6.4ZM397.45 0.4Q394 0.4 392.7-1.05 391.4-2.5 391.4-5.7L391.4-5.7 391.4-28.55 388.95-28.55 388.95-35.2 391.4-35.2 391.4-42.95 399.9-42.95 399.9-35.2 402.4-35.2 402.4-28.55 399.9-28.55 399.9-8Q399.9-7.05 400.05-6.6 400.2-6.15 400.85-6.15L400.85-6.15Q401.35-6.15 401.8-6.2 402.25-6.25 402.4-6.25L402.4-6.25 402.4-0.25Q401.65-0.05 400.23 0.18 398.8 0.4 397.45 0.4L397.45 0.4ZM405.15 0L405.15-43.2 414.15-43.2 414.15-33Q415.55-37 419.5-37L419.5-37Q423.2-37 425.1-34.65 427-32.3 427-28.2L427-28.2 427 0 418.25 0 418.25-27.65Q418.25-28.85 417.7-29.6 417.15-30.35 416.1-30.35L416.1-30.35Q415.2-30.35 414.67-29.58 414.15-28.8 414.15-27.7L414.15-27.7 414.15 0 405.15 0ZM440.65 0.4Q435 0.4 432.55-2.7 430.1-5.8 430.1-11.95L430.1-11.95 430.1-26.65Q430.1-31.7 433-34.35 435.9-37 441.1-37L441.1-37Q451.65-37 451.65-26.65L451.65-26.65 451.65-24Q451.65-20 451.55-17.5L451.55-17.5 438.85-17.5 438.85-10.4Q438.85-8.5 439.25-7.43 439.65-6.35 440.95-6.35L440.95-6.35Q441.95-6.35 442.37-6.95 442.8-7.55 442.87-8.33 442.95-9.1 442.95-10.6L442.95-10.6 442.95-14.15 451.65-14.15 451.65-12.05Q451.65-5.65 449.17-2.63 446.7 0.4 440.65 0.4L440.65 0.4ZM438.8-21.85L442.95-21.85 442.95-26.55Q442.95-30.5 441-30.5L441-30.5Q438.8-30.5 438.8-26.55L438.8-26.55 438.8-21.85ZM475.19 0L466.64 0 466.64-42.95 475.19-42.95 475.19-27.6 479.24-27.6 479.24-42.95 487.79-42.95 487.79 0 479.24 0 479.24-19.5 475.19-19.5 475.19 0ZM498.09 0.4Q493.84 0.4 492.26-2.43 490.69-5.25 490.69-10.5L490.69-10.5Q490.69-14.8 491.81-17.1 492.94-19.4 494.94-20.48 496.94-21.55 501.04-22.85L501.04-22.85 503.44-23.65 503.44-23.75 503.44-27.4Q503.44-28.85 502.86-29.63 502.29-30.4 501.49-30.4L501.49-30.4Q500.79-30.4 500.26-29.75 499.74-29.1 499.74-28L499.74-28 499.74-25.8 491.24-25.8 491.24-27Q491.24-32.4 493.76-34.7 496.29-37 501.99-37L501.99-37Q506.54-37 509.39-34.63 512.24-32.25 512.24-27.9L512.24-27.9 512.24 0 503.54 0 503.54-4.35Q502.89-2.1 501.46-0.85 500.04 0.4 498.09 0.4L498.09 0.4ZM501.54-6.4Q502.54-6.4 502.96-7.23 503.39-8.05 503.39-9.25L503.39-9.25 503.39-19.45Q501.44-18.7 500.51-17.55 499.59-16.4 499.59-14.35L499.59-14.35 499.59-9.65Q499.59-6.4 501.54-6.4L501.54-6.4ZM523.13 0.4Q519.69 0.4 518.38-1.05 517.09-2.5 517.09-5.7L517.09-5.7 517.09-28.55 514.63-28.55 514.63-35.2 517.09-35.2 517.09-42.95 525.59-42.95 525.59-35.2 528.09-35.2 528.09-28.55 525.59-28.55 525.59-8Q525.59-7.05 525.74-6.6 525.88-6.15 526.54-6.15L526.54-6.15Q527.04-6.15 527.49-6.2 527.94-6.25 528.09-6.25L528.09-6.25 528.09-0.25Q527.34-0.05 525.91 0.18 524.49 0.4 523.13 0.4L523.13 0.4ZM541.08 0.4Q535.43 0.4 532.98-2.7 530.53-5.8 530.53-11.95L530.53-11.95 530.53-26.65Q530.53-31.7 533.43-34.35 536.33-37 541.53-37L541.53-37Q552.08-37 552.08-26.65L552.08-26.65 552.08-24Q552.08-20 551.98-17.5L551.98-17.5 539.28-17.5 539.28-10.4Q539.28-8.5 539.68-7.43 540.08-6.35 541.38-6.35L541.38-6.35Q542.38-6.35 542.81-6.95 543.23-7.55 543.31-8.33 543.38-9.1 543.38-10.6L543.38-10.6 543.38-14.15 552.08-14.15 552.08-12.05Q552.08-5.65 549.61-2.63 547.13 0.4 541.08 0.4L541.08 0.4ZM539.23-21.85L543.38-21.85 543.38-26.55Q543.38-30.5 541.43-30.5L541.43-30.5Q539.23-30.5 539.23-26.55L539.23-26.55 539.23-21.85ZM563.58 0L554.83 0 554.83-7.3 563.58-7.3 563.58 0Z" opacity="1" transform="matrix(1,0,0,1,0,0)" fill="#111111" class="slogan-text-1" data-fill-palette-color="secondary" id="text-1"></path></svg></g></svg></g></svg></g></svg></g><g><svg viewBox="0 0 193.08715243145372 193.08715243145372" height="193.08715243145372" width="193.08715243145372"><g><svg xmlns="http://www.w3.org/2000/svg" xmlns:xlink="http://www.w3.org/1999/xlink" version="1.1" x="0" y="0" viewBox="17.5 17.5 65 65" enable-background="new 0 0 100 100" xml:space="preserve" height="193.08715243145372" width="193.08715243145372" class="icon-icon-0" data-fill-palette-color="accent" id="icon-0"><path d="M50 17.5c-17.921 0-32.5 14.579-32.5 32.5S32.079 82.5 50 82.5 82.5 67.921 82.5 50 67.921 17.5 50 17.5zM50 77.5c-15.163 0-27.5-12.337-27.5-27.5S34.837 22.5 50 22.5 77.5 34.837 77.5 50 65.163 77.5 50 77.5z" fill="#111111" data-fill-palette-color="accent"></path><path d="M64.268 35.732c-0.977-0.977-2.559-0.977-3.535 0L50 46.465 39.268 35.732c-0.977-0.977-2.559-0.977-3.535 0s-0.977 2.559 0 3.535L46.465 50 35.732 60.732c-0.977 0.977-0.977 2.559 0 3.535C36.221 64.756 36.86 65 37.5 65s1.279-0.244 1.768-0.732L50 53.535l10.732 10.732C61.221 64.756 61.86 65 62.5 65s1.279-0.244 1.768-0.732c0.977-0.977 0.977-2.559 0-3.535L53.535 50l10.732-10.732C65.244 38.291 65.244 36.709 64.268 35.732z" fill="#111111" data-fill-palette-color="accent"></path></svg></g></svg></g></svg></g><defs></defs></svg><rect width="395.52" height="119.93140575129277" fill="none" stroke="none" visibility="hidden"></rect></g></svg></g></svg>