<?xml version="1.0" encoding="UTF-8"?>
<svg width="1467px" height="410px" viewBox="0 0 1467 410" version="1.1" xmlns="http://www.w3.org/2000/svg" xmlns:xlink="http://www.w3.org/1999/xlink">
    <title>Group</title>
    <g id="Page-1" stroke="none" stroke-width="1" fill="none" fill-rule="evenodd">
        <g id="logo-color" transform="translate(-945, -2326)">
            <g id="Group" transform="translate(945.2801, 2326.7052)">
                <g transform="translate(-0, 0)" id="tight-bounds">
                    <g id="Group" transform="translate(8.5215, 0)" fill-rule="nonzero">
                        <g>
                            <rect id="qz-0" fill="#F6A431" x="334.373946" y="108.342805" width="16.6756988" height="300.737958" rx="3.78787879"></rect>
                            <g transform="translate(399.5013, 0)" id="textblock">
                                <g id="text-0" fill="#F6A431">
                                    <path d="M21.5909091,109.090909 L0,109.090909 L0,0.631313131 L21.5909091,0.631313131 L21.5909091,39.3939394 L31.8181818,39.3939394 L31.8181818,0.631313131 L53.4090909,0.631313131 L53.4090909,109.090909 L31.8181818,109.090909 L31.8181818,59.8484848 L21.5909091,59.8484848 L21.5909091,109.090909 Z M79.4191919,110.10101 C72.2643098,110.10101 67.3569024,107.718855 64.6969697,102.954545 C62.0538721,98.2070707 60.7323232,91.4141414 60.7323232,82.5757576 L60.7323232,82.5757576 C60.7323232,75.3367003 61.6750842,69.7811448 63.5606061,65.9090909 C65.462963,62.037037 68.0976431,59.1919192 71.4646465,57.3737374 C74.8316498,55.5723906 79.96633,53.5774411 86.8686869,51.3888889 L86.8686869,51.3888889 L92.9292929,49.3686869 L92.9292929,49.1161616 L92.9292929,39.8989899 C92.9292929,37.4579125 92.4410774,35.5808081 91.4646465,34.2676768 C90.5050505,32.9713805 89.3518519,32.3232323 88.0050505,32.3232323 L88.0050505,32.3232323 C86.8265993,32.3232323 85.7912458,32.8703704 84.8989899,33.9646465 C84.023569,35.0589226 83.5858586,36.5319865 83.5858586,38.3838384 L83.5858586,38.3838384 L83.5858586,43.9393939 L62.1212121,43.9393939 L62.1212121,40.9090909 C62.1212121,31.8181818 64.2424242,25.3367003 68.4848485,21.4646465 C72.7441077,17.5925926 79.6717172,15.6565657 89.2676768,15.6565657 L89.2676768,15.6565657 C96.9276094,15.6565657 103.156566,17.6515152 107.954545,21.6414141 C112.752525,25.6481481 115.151515,31.3131313 115.151515,38.6363636 L115.151515,38.6363636 L115.151515,109.090909 L93.1818182,109.090909 L93.1818182,98.1060606 C92.0875421,101.893939 90.3367003,104.840067 87.9292929,106.944444 C85.5387205,109.048822 82.7020202,110.10101 79.4191919,110.10101 L79.4191919,110.10101 Z M88.1313131,92.9292929 C89.8148148,92.9292929 91.010101,92.2306397 91.7171717,90.8333333 C92.4410774,89.452862 92.8030303,87.7525253 92.8030303,85.7323232 L92.8030303,85.7323232 L92.8030303,59.9747475 C89.520202,61.2373737 87.0959596,62.8367003 85.530303,64.7727273 C83.9814815,66.7087542 83.2070707,69.4023569 83.2070707,72.8535354 L83.2070707,72.8535354 L83.2070707,84.7222222 C83.2070707,90.1936027 84.8484848,92.9292929 88.1313131,92.9292929 L88.1313131,92.9292929 Z M148.989899,110.10101 C130.723906,110.10101 121.590909,100.841751 121.590909,82.3232323 L121.590909,82.3232323 L121.717172,75 L143.813131,75 L143.939394,85.8585859 C143.939394,88.047138 144.360269,89.7053872 145.20202,90.8333333 C146.043771,91.9781145 147.43266,92.5505051 149.368687,92.5505051 L149.368687,92.5505051 C152.314815,92.5505051 153.787879,90.1515152 153.787879,85.3535354 L153.787879,85.3535354 C153.787879,81.8181818 153.089226,79.040404 151.691919,77.020202 C150.311448,75 148.106061,72.8535354 145.075758,70.5808081 L145.075758,70.5808081 L133.333333,61.489899 C129.292929,58.3754209 126.388889,55.1515152 124.621212,51.8181818 C122.853535,48.5016835 121.969697,43.8131313 121.969697,37.7525253 L121.969697,37.7525253 C121.969697,33.0387205 123.207071,29.023569 125.681818,25.7070707 C128.173401,22.3737374 131.481481,19.8653199 135.606061,18.1818182 C139.73064,16.4983165 144.318182,15.6565657 149.368687,15.6565657 L149.368687,15.6565657 C167.29798,15.6565657 176.262626,24.5791246 176.262626,42.4242424 L176.262626,42.4242424 L176.262626,44.1919192 L153.409091,44.1919192 L153.409091,40.6565657 C153.409091,38.4680135 153.047138,36.5909091 152.323232,35.0252525 C151.616162,33.476431 150.420875,32.7020202 148.737374,32.7020202 L148.737374,32.7020202 C147.222222,32.7020202 146.060606,33.1397306 145.252525,34.0151515 C144.461279,34.9074074 144.065657,36.1111111 144.065657,37.6262626 L144.065657,37.6262626 C144.065657,40.993266 145.37037,43.6026936 147.979798,45.4545455 L147.979798,45.4545455 L161.616162,55.4292929 C166.498316,59.0488215 170.23569,62.9882155 172.828283,67.2474747 C175.454545,71.489899 176.767677,76.8518519 176.767677,83.3333333 L176.767677,83.3333333 C176.767677,91.9191919 174.326599,98.526936 169.444444,103.156566 C164.545455,107.786195 157.727273,110.10101 148.989899,110.10101 L148.989899,110.10101 Z M208.939394,110.10101 C190.673401,110.10101 181.540404,100.841751 181.540404,82.3232323 L181.540404,82.3232323 L181.666667,75 L203.762626,75 L203.888889,85.8585859 C203.888889,88.047138 204.309764,89.7053872 205.151515,90.8333333 C205.993266,91.9781145 207.382155,92.5505051 209.318182,92.5505051 L209.318182,92.5505051 C212.26431,92.5505051 213.737374,90.1515152 213.737374,85.3535354 L213.737374,85.3535354 C213.737374,81.8181818 213.047138,79.040404 211.666667,77.020202 C210.26936,75 208.055556,72.8535354 205.025253,70.5808081 L205.025253,70.5808081 L193.282828,61.489899 C189.242424,58.3754209 186.338384,55.1515152 184.570707,51.8181818 C182.80303,48.5016835 181.919192,43.8131313 181.919192,37.7525253 L181.919192,37.7525253 C181.919192,33.0387205 183.164983,29.023569 185.656566,25.7070707 C188.131313,22.3737374 191.430976,19.8653199 195.555556,18.1818182 C199.680135,16.4983165 204.267677,15.6565657 209.318182,15.6565657 L209.318182,15.6565657 C227.247475,15.6565657 236.212121,24.5791246 236.212121,42.4242424 L236.212121,42.4242424 L236.212121,44.1919192 L213.358586,44.1919192 L213.358586,40.6565657 C213.358586,38.4680135 213.005051,36.5909091 212.29798,35.0252525 C211.574074,33.476431 210.37037,32.7020202 208.686869,32.7020202 L208.686869,32.7020202 C207.171717,32.7020202 206.018519,33.1397306 205.227273,34.0151515 C204.419192,34.9074074 204.015152,36.1111111 204.015152,37.6262626 L204.015152,37.6262626 C204.015152,40.993266 205.319865,43.6026936 207.929293,45.4545455 L207.929293,45.4545455 L221.565657,55.4292929 C226.447811,59.0488215 230.193603,62.9882155 232.80303,67.2474747 C235.412458,71.489899 236.717172,76.8518519 236.717172,83.3333333 L236.717172,83.3333333 C236.717172,91.9191919 234.276094,98.526936 229.393939,103.156566 C224.511785,107.786195 217.693603,110.10101 208.939394,110.10101 L208.939394,110.10101 Z M243.535354,109.090909 L243.535354,16.6666667 L265.126263,16.6666667 L265.126263,27.3989899 C266.136364,23.4427609 267.861953,20.496633 270.30303,18.5606061 C272.744108,16.6245791 276.195286,15.6565657 280.656566,15.6565657 L280.656566,15.6565657 C284.276094,15.6565657 287.415825,16.4814815 290.075758,18.1313131 C292.718855,19.7643098 294.587542,22.0117845 295.681818,24.8737374 L295.681818,24.8737374 C297.53367,21.6750842 299.59596,19.3350168 301.868687,17.8535354 C304.141414,16.3888889 307.29798,15.6565657 311.338384,15.6565657 L311.338384,15.6565657 C318.577441,15.6565657 323.611111,17.8619529 326.439394,22.2727273 C329.250842,26.7003367 330.656566,33.1228956 330.656566,41.540404 L330.656566,41.540404 L330.40404,109.090909 L308.181818,109.090909 L308.181818,41.1616162 C308.181818,35.1851852 306.666667,32.1969697 303.636364,32.1969697 L303.636364,32.1969697 C301.531987,32.1969697 300.016835,33.2239057 299.090909,35.2777778 C298.164983,37.3484848 297.70202,39.8148148 297.70202,42.6767677 L297.70202,42.6767677 L297.70202,109.090909 L275.606061,109.090909 L275.606061,41.1616162 C275.606061,38.5521886 275.3367,36.4478114 274.79798,34.8484848 C274.242424,33.2491582 273.080808,32.4494949 271.313131,32.4494949 L271.313131,32.4494949 C269.040404,32.4494949 267.441077,33.5606061 266.515152,35.7828283 C265.589226,38.0218855 265.126263,40.6986532 265.126263,43.8131313 L265.126263,43.8131313 L265.126263,109.090909 L243.535354,109.090909 Z M365.126263,110.10101 C355.614478,110.10101 348.796296,107.491582 344.671717,102.272727 C340.547138,97.0538721 338.484848,89.2676768 338.484848,78.9141414 L338.484848,78.9141414 L338.484848,41.7929293 C338.484848,33.2912458 340.925926,26.8097643 345.808081,22.3484848 C350.690236,17.8872054 357.508418,15.6565657 366.262626,15.6565657 L366.262626,15.6565657 C384.023569,15.6565657 392.90404,24.3686869 392.90404,41.7929293 L392.90404,41.7929293 L392.90404,48.4848485 C392.90404,55.2188552 392.819865,60.6902357 392.651515,64.8989899 L392.651515,64.8989899 L360.580808,64.8989899 L360.580808,82.8282828 C360.580808,86.026936 360.917508,88.526936 361.590909,90.3282828 C362.26431,92.1464646 363.695286,93.0555556 365.883838,93.0555556 L365.883838,93.0555556 C367.56734,93.0555556 368.762626,92.5505051 369.469697,91.540404 C370.193603,90.530303 370.614478,89.3686869 370.732323,88.0555556 C370.867003,86.7592593 370.934343,84.8484848 370.934343,82.3232323 L370.934343,82.3232323 L370.934343,73.3585859 L392.90404,73.3585859 L392.90404,78.6616162 C392.90404,89.4360269 390.816498,97.3653199 386.641414,102.449495 C382.483165,107.550505 375.311448,110.10101 365.126263,110.10101 L365.126263,110.10101 Z M360.454545,53.9141414 L370.934343,53.9141414 L370.934343,42.0454545 C370.934343,35.3956229 369.292929,32.0707071 366.010101,32.0707071 L366.010101,32.0707071 C362.306397,32.0707071 360.454545,35.3956229 360.454545,42.0454545 L360.454545,42.0454545 L360.454545,53.9141414 Z M423.333333,109.090909 L400.858586,109.090909 L400.858586,0 L423.333333,0 L423.333333,109.090909 Z M450.328283,110.10101 C444.941077,110.10101 440.883838,108.813131 438.156566,106.237374 C435.412458,103.678451 433.602694,100.26936 432.727273,96.010101 C431.835017,91.7676768 431.388889,86.3215488 431.388889,79.6717172 L431.388889,79.6717172 L431.641414,38.0050505 C431.641414,31.4393939 433.308081,26.0774411 436.641414,21.9191919 C439.957912,17.7441077 444.646465,15.6565657 450.707071,15.6565657 L450.707071,15.6565657 C456.683502,15.6565657 461.144781,17.6346801 464.090909,21.5909091 L464.090909,21.5909091 L464.090909,0 L486.186869,0 L486.186869,109.090909 L464.090909,109.090909 L464.090909,99.2424242 C462.828283,102.861953 461.127946,105.572391 458.989899,107.373737 C456.835017,109.191919 453.947811,110.10101 450.328283,110.10101 L450.328283,110.10101 Z M458.787879,92.8030303 C460.976431,92.8030303 462.407407,91.7255892 463.080808,89.5707071 C463.754209,87.4326599 464.090909,84.5538721 464.090909,80.9343434 L464.090909,80.9343434 L464.090909,77.020202 L464.090909,42.2979798 C464.090909,39.6043771 463.712121,37.3316498 462.954545,35.479798 C462.19697,33.6279461 460.850168,32.7020202 458.914141,32.7020202 L458.914141,32.7020202 C456.725589,32.7020202 455.277778,33.5606061 454.570707,35.2777778 C453.846801,37.0117845 453.484848,39.3518519 453.484848,42.2979798 L453.484848,42.2979798 L453.484848,81.1868687 C453.484848,88.9309764 455.252525,92.8030303 458.787879,92.8030303 L458.787879,92.8030303 Z M520.909091,110.10101 C511.397306,110.10101 504.579125,107.491582 500.454545,102.272727 C496.329966,97.0538721 494.267677,89.2676768 494.267677,78.9141414 L494.267677,78.9141414 L494.267677,41.7929293 C494.267677,33.2912458 496.708754,26.8097643 501.590909,22.3484848 C506.473064,17.8872054 513.291246,15.6565657 522.045455,15.6565657 L522.045455,15.6565657 C539.806397,15.6565657 548.686869,24.3686869 548.686869,41.7929293 L548.686869,41.7929293 L548.686869,48.4848485 C548.686869,55.2188552 548.602694,60.6902357 548.434343,64.8989899 L548.434343,64.8989899 L516.363636,64.8989899 L516.363636,82.8282828 C516.363636,86.026936 516.700337,88.526936 517.373737,90.3282828 C518.047138,92.1464646 519.478114,93.0555556 521.666667,93.0555556 L521.666667,93.0555556 C523.350168,93.0555556 524.553872,92.5505051 525.277778,91.540404 C525.984848,90.530303 526.405724,89.3686869 526.540404,88.0555556 C526.658249,86.7592593 526.717172,84.8484848 526.717172,82.3232323 L526.717172,82.3232323 L526.717172,73.3585859 L548.686869,73.3585859 L548.686869,78.6616162 C548.686869,89.4360269 546.607744,97.3653199 542.449495,102.449495 C538.274411,107.550505 531.094276,110.10101 520.909091,110.10101 L520.909091,110.10101 Z M516.237374,53.9141414 L526.717172,53.9141414 L526.717172,42.0454545 C526.717172,35.3956229 525.075758,32.0707071 521.792929,32.0707071 L521.792929,32.0707071 C518.089226,32.0707071 516.237374,35.3956229 516.237374,42.0454545 L516.237374,42.0454545 L516.237374,53.9141414 Z M556.641414,109.090909 L556.641414,16.6666667 L578.737374,16.6666667 L578.737374,26.8939394 C579.83165,23.2744108 581.742424,20.4713805 584.469697,18.4848485 C587.213805,16.5151515 590.606061,15.530303 594.646465,15.530303 L594.646465,15.530303 L594.646465,33.9646465 C591.531987,33.9646465 588.097643,34.4023569 584.343434,35.2777778 C580.606061,36.1700337 578.737374,37.2053872 578.737374,38.3838384 L578.737374,38.3838384 L578.737374,109.090909 L556.641414,109.090909 Z"></path>
                                </g>
                                <g id="text-1" transform="translate(0, 223.643)" fill="#1F2041">
                                    <path d="M44.8232323,114.015152 L0,114.015152 L0,5.55555556 L43.4343434,5.55555556 L43.4343434,26.5151515 L22.0959596,26.5151515 L22.0959596,47.6010101 L42.5505051,47.6010101 L42.5505051,68.0555556 L22.0959596,68.0555556 L22.0959596,92.9292929 L44.8232323,92.9292929 L44.8232323,114.015152 Z M73.6111111,15.4040404 L51.5151515,15.4040404 L51.5151515,0 L73.6111111,0 L73.6111111,15.4040404 Z M73.6111111,114.015152 L51.5151515,114.015152 L51.5151515,21.5909091 L73.6111111,21.5909091 L73.6111111,114.015152 Z M82.3232323,114.015152 L82.3232323,21.5909091 L104.419192,21.5909091 L104.419192,33.3333333 C105.345118,29.5454545 106.944444,26.473064 109.217172,24.1161616 C111.489899,21.7592593 114.520202,20.5808081 118.308081,20.5808081 L118.308081,20.5808081 C124.537037,20.5808081 129.141414,22.4915825 132.121212,26.3131313 C135.117845,30.1515152 136.616162,35.6060606 136.616162,42.6767677 L136.616162,42.6767677 L136.616162,114.015152 L114.89899,114.015152 L114.89899,44.9494949 C114.89899,42.9292929 114.494949,41.2037037 113.686869,39.7727273 C112.895623,38.3417508 111.658249,37.6262626 109.974747,37.6262626 L109.974747,37.6262626 C107.70202,37.6262626 106.203704,38.6531987 105.479798,40.7070707 C104.772727,42.7777778 104.419192,45.5387205 104.419192,48.989899 L104.419192,48.989899 L104.419192,114.015152 L82.3232323,114.015152 Z M196.818182,114.015152 L175.227273,114.015152 L175.227273,5.55555556 L196.691919,5.55555556 L196.691919,48.989899 L206.792929,5.55555556 L228.636364,5.55555556 L216.515152,55.1767677 L231.161616,114.015152 L208.686869,114.015152 L196.818182,61.489899 L196.818182,114.015152 Z M256.919192,114.015152 L234.444444,114.015152 L234.444444,4.92424242 L256.919192,4.92424242 L256.919192,114.015152 Z M287.727273,15.4040404 L265.631313,15.4040404 L265.631313,0 L287.727273,0 L287.727273,15.4040404 Z M287.727273,114.015152 L265.631313,114.015152 L265.631313,21.5909091 L287.727273,21.5909091 L287.727273,114.015152 Z M324.191919,115.025253 C314.090909,115.025253 306.809764,112.457912 302.348485,107.323232 C297.887205,102.188552 295.656566,94.3181818 295.656566,83.7121212 L295.656566,83.7121212 L295.656566,55.1767677 C295.656566,47.1801347 296.523569,40.6734007 298.257576,35.6565657 C299.974747,30.6565657 302.878788,26.8939394 306.969697,24.3686869 C311.043771,21.8434343 316.700337,20.5808081 323.939394,20.5808081 L323.939394,20.5808081 C331.851852,20.5808081 338.291246,22.6430976 343.257576,26.7676768 C348.223906,30.8922559 350.707071,36.6582492 350.707071,44.0656566 L350.707071,44.0656566 L350.707071,58.2070707 L328.232323,58.2070707 L328.232323,45.2020202 C328.232323,42.7609428 327.895623,40.8838384 327.222222,39.5707071 C326.548822,38.2744108 325.244108,37.6262626 323.308081,37.6262626 L323.308081,37.6262626 C319.688552,37.6262626 317.878788,40.1936027 317.878788,45.3282828 L317.878788,45.3282828 L317.878788,90.1515152 C317.878788,92.2558923 318.324916,94.040404 319.217172,95.5050505 C320.092593,96.986532 321.414141,97.7272727 323.181818,97.7272727 L323.181818,97.7272727 C324.949495,97.7272727 326.279461,97.0117845 327.171717,95.5808081 C328.047138,94.1498316 328.442761,92.2979798 328.358586,90.0252525 L328.358586,90.0252525 L328.232323,74.4949495 L350.707071,74.4949495 L350.707071,90.6565657 C350.707071,98.2323232 348.249158,104.183502 343.333333,108.510101 C338.400673,112.853535 332.020202,115.025253 324.191919,115.025253 L324.191919,115.025253 Z M380.252525,114.015152 L358.409091,114.015152 L358.409091,4.92424242 L380.252525,4.92424242 L380.252525,53.4090909 L390.858586,21.5909091 L413.712121,21.5909091 L399.823232,61.7424242 L417.5,114.015152 L394.015152,114.015152 L380.252525,70.4545455 L380.252525,114.015152 Z M474.823232,127.525253 C468.257576,127.525253 463.097643,127.003367 459.343434,125.959596 C455.606061,124.89899 451.927609,122.895623 448.308081,119.949495 L448.308081,119.949495 L455.883838,107.19697 C461.271044,110.395623 466.616162,111.994949 471.919192,111.994949 L471.919192,111.994949 C475.37037,111.994949 477.979798,110.900673 479.747475,108.712121 C481.515152,106.523569 482.39899,103.535354 482.39899,99.7474747 L482.39899,99.7474747 L482.39899,94.6969697 C480.631313,101.010101 475.959596,104.166667 468.383838,104.166667 L468.383838,104.166667 C462.070707,104.166667 457.415825,102.020202 454.419192,97.7272727 C451.439394,93.4343434 449.949495,87.7104377 449.949495,80.5555556 L449.949495,80.5555556 L449.949495,45.8333333 C449.949495,37.6683502 451.313131,31.4141414 454.040404,27.0707071 C456.784512,22.7441077 461.565657,20.5808081 468.383838,20.5808081 L468.383838,20.5808081 C472.340067,20.5808081 475.47138,21.5656566 477.777778,23.5353535 C480.10101,25.5218855 481.641414,28.3249158 482.39899,31.9444444 L482.39899,31.9444444 L482.39899,21.5909091 L505,21.5909091 L505,98.3585859 C505,108.712121 502.60101,116.161616 497.80303,120.707071 C493.005051,125.252525 485.345118,127.525253 474.823232,127.525253 L474.823232,127.525253 Z M477.222222,87.5 C480.673401,87.5 482.39899,84.3855219 482.39899,78.1565657 L482.39899,78.1565657 L482.39899,45.2020202 C482.39899,43.3501684 481.893939,41.5824916 480.883838,39.8989899 C479.873737,38.2154882 478.611111,37.3737374 477.09596,37.3737374 L477.09596,37.3737374 C475.159933,37.3737374 473.855219,38.0639731 473.181818,39.4444444 C472.508418,40.8417508 472.171717,42.7609428 472.171717,45.2020202 L472.171717,45.2020202 L472.171717,78.1565657 C472.171717,80.9343434 472.508418,83.1818182 473.181818,84.8989899 C473.855219,86.6329966 475.20202,87.5 477.222222,87.5 L477.222222,87.5 Z M539.444444,115.025253 C529.93266,115.025253 523.114478,112.415825 518.989899,107.19697 C514.86532,101.978114 512.80303,94.1919192 512.80303,83.8383838 L512.80303,83.8383838 L512.80303,46.7171717 C512.80303,38.2154882 515.244108,31.7340067 520.126263,27.2727273 C525.008418,22.8114478 531.826599,20.5808081 540.580808,20.5808081 L540.580808,20.5808081 C558.341751,20.5808081 567.222222,29.2929293 567.222222,46.7171717 L567.222222,46.7171717 L567.222222,53.4090909 C567.222222,60.1430976 567.138047,65.6144781 566.969697,69.8232323 L566.969697,69.8232323 L534.89899,69.8232323 L534.89899,87.7525253 C534.89899,90.9511785 535.23569,93.4511785 535.909091,95.2525253 C536.582492,97.0707071 538.013468,97.979798 540.20202,97.979798 L540.20202,97.979798 C541.885522,97.979798 543.089226,97.4747475 543.813131,96.4646465 C544.520202,95.4545455 544.941077,94.2929293 545.075758,92.979798 C545.193603,91.6835017 545.252525,89.7727273 545.252525,87.2474747 L545.252525,87.2474747 L545.252525,78.2828283 L567.222222,78.2828283 L567.222222,83.5858586 C567.222222,94.3602694 565.143098,102.289562 560.984848,107.373737 C556.809764,112.474747 549.62963,115.025253 539.444444,115.025253 L539.444444,115.025253 Z M534.772727,58.8383838 L545.252525,58.8383838 L545.252525,46.969697 C545.252525,40.3198653 543.611111,36.9949495 540.328283,36.9949495 L540.328283,36.9949495 C536.624579,36.9949495 534.772727,40.3198653 534.772727,46.969697 L534.772727,46.969697 L534.772727,58.8383838 Z M600.050505,127.525253 C593.484848,127.525253 588.333333,127.003367 584.59596,125.959596 C580.841751,124.89899 577.154882,122.895623 573.535354,119.949495 L573.535354,119.949495 L581.111111,107.19697 C586.498316,110.395623 591.843434,111.994949 597.146465,111.994949 L597.146465,111.994949 C600.597643,111.994949 603.207071,110.900673 604.974747,108.712121 C606.742424,106.523569 607.626263,103.535354 607.626263,99.7474747 L607.626263,99.7474747 L607.626263,94.6969697 C605.858586,101.010101 601.186869,104.166667 593.611111,104.166667 L593.611111,104.166667 C587.29798,104.166667 582.651515,102.020202 579.671717,97.7272727 C576.675084,93.4343434 575.176768,87.7104377 575.176768,80.5555556 L575.176768,80.5555556 L575.176768,45.8333333 C575.176768,37.6683502 576.548822,31.4141414 579.292929,27.0707071 C582.020202,22.7441077 586.792929,20.5808081 593.611111,20.5808081 L593.611111,20.5808081 C597.56734,20.5808081 600.707071,21.5656566 603.030303,23.5353535 C605.3367,25.5218855 606.868687,28.3249158 607.626263,31.9444444 L607.626263,31.9444444 L607.626263,21.5909091 L630.227273,21.5909091 L630.227273,98.3585859 C630.227273,108.712121 627.828283,116.161616 623.030303,120.707071 C618.232323,125.252525 610.572391,127.525253 600.050505,127.525253 L600.050505,127.525253 Z M602.449495,87.5 C605.900673,87.5 607.626263,84.3855219 607.626263,78.1565657 L607.626263,78.1565657 L607.626263,45.2020202 C607.626263,43.3501684 607.121212,41.5824916 606.111111,39.8989899 C605.10101,38.2154882 603.838384,37.3737374 602.323232,37.3737374 L602.323232,37.3737374 C600.387205,37.3737374 599.082492,38.0639731 598.409091,39.4444444 C597.73569,40.8417508 597.39899,42.7609428 597.39899,45.2020202 L597.39899,45.2020202 L597.39899,78.1565657 C597.39899,80.9343434 597.73569,83.1818182 598.409091,84.8989899 C599.082492,86.6329966 600.429293,87.5 602.449495,87.5 L602.449495,87.5 Z M664.69697,115.025253 C655.185185,115.025253 648.367003,112.415825 644.242424,107.19697 C640.117845,101.978114 638.055556,94.1919192 638.055556,83.8383838 L638.055556,83.8383838 L638.055556,46.7171717 C638.055556,38.2154882 640.496633,31.7340067 645.378788,27.2727273 C650.260943,22.8114478 657.079125,20.5808081 665.833333,20.5808081 L665.833333,20.5808081 C683.594276,20.5808081 692.474747,29.2929293 692.474747,46.7171717 L692.474747,46.7171717 L692.474747,53.4090909 C692.474747,60.1430976 692.390572,65.6144781 692.222222,69.8232323 L692.222222,69.8232323 L660.151515,69.8232323 L660.151515,87.7525253 C660.151515,90.9511785 660.488215,93.4511785 661.161616,95.2525253 C661.835017,97.0707071 663.265993,97.979798 665.454545,97.979798 L665.454545,97.979798 C667.138047,97.979798 668.333333,97.4747475 669.040404,96.4646465 C669.76431,95.4545455 670.185185,94.2929293 670.30303,92.979798 C670.43771,91.6835017 670.505051,89.7727273 670.505051,87.2474747 L670.505051,87.2474747 L670.505051,78.2828283 L692.474747,78.2828283 L692.474747,83.5858586 C692.474747,94.3602694 690.387205,102.289562 686.212121,107.373737 C682.053872,112.474747 674.882155,115.025253 664.69697,115.025253 L664.69697,115.025253 Z M660.025253,58.8383838 L670.505051,58.8383838 L670.505051,46.969697 C670.505051,40.3198653 668.863636,36.9949495 665.580808,36.9949495 L665.580808,36.9949495 C661.877104,36.9949495 660.025253,40.3198653 660.025253,46.969697 L660.025253,46.969697 L660.025253,58.8383838 Z M700.429293,114.015152 L700.429293,21.5909091 L722.525253,21.5909091 L722.525253,33.3333333 C723.451178,29.5454545 725.050505,26.473064 727.323232,24.1161616 C729.59596,21.7592593 732.626263,20.5808081 736.414141,20.5808081 L736.414141,20.5808081 C742.643098,20.5808081 747.247475,22.4915825 750.227273,26.3131313 C753.223906,30.1515152 754.722222,35.6060606 754.722222,42.6767677 L754.722222,42.6767677 L754.722222,114.015152 L733.005051,114.015152 L733.005051,44.9494949 C733.005051,42.9292929 732.60101,41.2037037 731.792929,39.7727273 C731.001684,38.3417508 729.76431,37.6262626 728.080808,37.6262626 L728.080808,37.6262626 C725.808081,37.6262626 724.309764,38.6531987 723.585859,40.7070707 C722.878788,42.7777778 722.525253,45.5387205 722.525253,48.989899 L722.525253,48.989899 L722.525253,114.015152 L700.429293,114.015152 Z M814.924242,114.015152 L793.333333,114.015152 L793.333333,5.55555556 L814.924242,5.55555556 L814.924242,44.3181818 L825.151515,44.3181818 L825.151515,5.55555556 L846.742424,5.55555556 L846.742424,114.015152 L825.151515,114.015152 L825.151515,64.7727273 L814.924242,64.7727273 L814.924242,114.015152 Z M872.752525,115.025253 C865.597643,115.025253 860.690236,112.643098 858.030303,107.878788 C855.387205,103.131313 854.065657,96.3383838 854.065657,87.5 L854.065657,87.5 C854.065657,80.2609428 855.008418,74.7053872 856.893939,70.8333333 C858.796296,66.9612795 861.430976,64.1161616 864.79798,62.2979798 C868.164983,60.496633 873.299663,58.5016835 880.20202,56.3131313 L880.20202,56.3131313 L886.262626,54.2929293 L886.262626,54.040404 L886.262626,44.8232323 C886.262626,42.3821549 885.774411,40.5050505 884.79798,39.1919192 C883.838384,37.8956229 882.685185,37.2474747 881.338384,37.2474747 L881.338384,37.2474747 C880.159933,37.2474747 879.124579,37.7946128 878.232323,38.8888889 C877.356902,39.983165 876.919192,41.456229 876.919192,43.3080808 L876.919192,43.3080808 L876.919192,48.8636364 L855.454545,48.8636364 L855.454545,45.8333333 C855.454545,36.7424242 857.575758,30.2609428 861.818182,26.3888889 C866.077441,22.516835 873.005051,20.5808081 882.60101,20.5808081 L882.60101,20.5808081 C890.260943,20.5808081 896.489899,22.5757576 901.287879,26.5656566 C906.085859,30.5723906 908.484848,36.2373737 908.484848,43.5606061 L908.484848,43.5606061 L908.484848,114.015152 L886.515152,114.015152 L886.515152,103.030303 C885.420875,106.818182 883.670034,109.76431 881.262626,111.868687 C878.872054,113.973064 876.035354,115.025253 872.752525,115.025253 L872.752525,115.025253 Z M881.464646,97.8535354 C883.148148,97.8535354 884.343434,97.1548822 885.050505,95.7575758 C885.774411,94.3771044 886.136364,92.6767677 886.136364,90.6565657 L886.136364,90.6565657 L886.136364,64.8989899 C882.853535,66.1616162 880.429293,67.7609428 878.863636,69.6969697 C877.314815,71.6329966 876.540404,74.3265993 876.540404,77.7777778 L876.540404,77.7777778 L876.540404,89.6464646 C876.540404,95.1178451 878.181818,97.8535354 881.464646,97.8535354 L881.464646,97.8535354 Z M942.323232,115.025253 C924.040404,115.025253 914.89899,105.765993 914.89899,87.2474747 L914.89899,87.2474747 L915.025253,79.9242424 L937.121212,79.9242424 L937.272727,90.7828283 C937.272727,92.9713805 937.693603,94.6296296 938.535354,95.7575758 C939.377104,96.9023569 940.757576,97.4747475 942.676768,97.4747475 L942.676768,97.4747475 C945.622896,97.4747475 947.09596,95.0757576 947.09596,90.2777778 L947.09596,90.2777778 C947.09596,86.7424242 946.405724,83.9646465 945.025253,81.9444444 C943.644781,79.9242424 941.430976,77.7777778 938.383838,75.5050505 L938.383838,75.5050505 L926.666667,66.4141414 C922.609428,63.2996633 919.69697,60.0757576 917.929293,56.7424242 C916.178451,53.4259259 915.30303,48.7373737 915.30303,42.6767677 L915.30303,42.6767677 C915.30303,37.962963 916.540404,33.9478114 919.015152,30.6313131 C921.506734,27.2979798 924.806397,24.7895623 928.914141,23.1060606 C933.038721,21.4225589 937.626263,20.5808081 942.676768,20.5808081 L942.676768,20.5808081 C960.622896,20.5808081 969.59596,29.503367 969.59596,47.3484848 L969.59596,47.3484848 L969.59596,49.1161616 L946.742424,49.1161616 L946.742424,45.5808081 C946.742424,43.3922559 946.380471,41.5151515 945.656566,39.9494949 C944.93266,38.4006734 943.728956,37.6262626 942.045455,37.6262626 L942.045455,37.6262626 C940.547138,37.6262626 939.393939,38.0639731 938.585859,38.9393939 C937.794613,39.8316498 937.39899,41.0353535 937.39899,42.5505051 L937.39899,42.5505051 C937.39899,45.9175084 938.695286,48.526936 941.287879,50.3787879 L941.287879,50.3787879 L954.949495,60.3535354 C959.814815,63.973064 963.552189,67.9124579 966.161616,72.1717172 C968.787879,76.4141414 970.10101,81.7760943 970.10101,88.2575758 L970.10101,88.2575758 C970.10101,96.8434343 967.651515,103.451178 962.752525,108.080808 C957.87037,112.710438 951.060606,115.025253 942.323232,115.025253 L942.323232,115.025253 Z M1002.27273,115.025253 C984.006734,115.025253 974.873737,105.765993 974.873737,87.2474747 L974.873737,87.2474747 L975,79.9242424 L997.09596,79.9242424 L997.222222,90.7828283 C997.222222,92.9713805 997.643098,94.6296296 998.484848,95.7575758 C999.326599,96.9023569 1000.71549,97.4747475 1002.65152,97.4747475 L1002.65152,97.4747475 C1005.59764,97.4747475 1007.07071,95.0757576 1007.07071,90.2777778 L1007.07071,90.2777778 C1007.07071,86.7424242 1006.38047,83.9646465 1005,81.9444444 C1003.60269,79.9242424 1001.38889,77.7777778 998.358586,75.5050505 L998.358586,75.5050505 L986.616162,66.4141414 C982.575758,63.2996633 979.671717,60.0757576 977.90404,56.7424242 C976.136364,53.4259259 975.252525,48.7373737 975.252525,42.6767677 L975.252525,42.6767677 C975.252525,37.962963 976.498316,33.9478114 978.989899,30.6313131 C981.464646,27.2979798 984.76431,24.7895623 988.888889,23.1060606 C993.013468,21.4225589 997.60101,20.5808081 1002.65152,20.5808081 L1002.65152,20.5808081 C1020.58081,20.5808081 1029.54545,29.503367 1029.54545,47.3484848 L1029.54545,47.3484848 L1029.54545,49.1161616 L1006.69192,49.1161616 L1006.69192,45.5808081 C1006.69192,43.3922559 1006.33838,41.5151515 1005.63131,39.9494949 C1004.90741,38.4006734 1003.7037,37.6262626 1002.0202,37.6262626 L1002.0202,37.6262626 C1000.50505,37.6262626 999.351852,38.0639731 998.560606,38.9393939 C997.752525,39.8316498 997.348485,41.0353535 997.348485,42.5505051 L997.348485,42.5505051 C997.348485,45.9175084 998.653199,48.526936 1001.26263,50.3787879 L1001.26263,50.3787879 L1014.89899,60.3535354 C1019.78114,63.973064 1023.52694,67.9124579 1026.13636,72.1717172 C1028.74579,76.4141414 1030.05051,81.7760943 1030.05051,88.2575758 L1030.05051,88.2575758 C1030.05051,96.8434343 1027.60943,103.451178 1022.72727,108.080808 C1017.84512,112.710438 1011.02694,115.025253 1002.27273,115.025253 L1002.27273,115.025253 Z M1057.95455,114.015152 L1035.85859,114.015152 L1035.85859,95.5808081 L1057.95455,95.5808081 L1057.95455,114.015152 Z"></path>
                                </g>
                            </g>
                            <g transform="translate(0, 115.9886)" fill="#1F2041" id="icon-0">
                                <g id="Group">
                                    <path d="M177.935606,177.935606 C137.284091,218.587121 71.1401515,218.587121 30.4886364,177.935606 C-10.1628788,137.284091 -10.1628788,71.1401515 30.4886364,30.4886364 C71.1401515,-10.1628788 137.284091,-10.1628788 177.935606,30.4886364 C218.587121,71.1401515 218.587121,137.284091 177.935606,177.935606 Z M45.1300505,45.1300505 C12.5517677,77.7083333 12.5517677,130.715909 45.1300505,163.294192 C77.7083333,195.872475 130.715909,195.872475 163.294192,163.294192 C195.872475,130.715909 195.872475,77.7058081 163.294192,45.1300505 C130.715909,12.5517677 77.7083333,12.5542929 45.1300505,45.1300505 Z" id="Shape"></path>
                                </g>
                                <g id="Group" transform="translate(59.1831, 55.7563)">
                                    <path d="M93.6616162,77.969697 C97.9949495,82.3030303 97.9949495,89.3308081 93.6616162,93.6641414 L93.6616162,93.6641414 C89.3282828,97.9974747 82.3005051,97.9974747 77.9671717,93.6641414 L3.25,18.9444444 C-1.08333333,14.6111111 -1.08333333,7.58333333 3.25,3.25 L3.25,3.25 C7.58333333,-1.08333333 14.6111111,-1.08333333 18.9444444,3.25 L93.6616162,77.969697 Z" id="Path"></path>
                                </g>
                                <g id="Group" transform="translate(59.1831, 55.7563)">
                                    <path d="M18.9444444,93.6616162 C14.6111111,97.9949495 7.58333333,97.9949495 3.25,93.6616162 L3.25,93.6616162 C-1.08333333,89.3282828 -1.08333333,82.3005051 3.25,77.9671717 L77.9671717,3.25 C82.3005051,-1.08333333 89.3282828,-1.08333333 93.6616162,3.25 L93.6616162,3.25 C97.9949495,7.58333333 97.9949495,14.6111111 93.6616162,18.9444444 L18.9444444,93.6616162 Z" id="Path"></path>
                                </g>
                            </g>
                        </g>
                    </g>
                    <rect id="Rectangle" x="0" y="108.342805" width="998.787879" height="214.244448"></rect>
                </g>
            </g>
        </g>
    </g>
</svg>